<svg xmlns="http://www.w3.org/2000/svg" viewBox="0 0 900 480" font-family="monospace">
  <defs>
    <linearGradient id="fixed" x1="0%" y1="0%" x2="100%" y2="0%">
      <stop offset="0%" stop-color="#C8E6C9"/><stop offset="100%" stop-color="#A5D6A7"/>
    </linearGradient>
    <linearGradient id="broken" x1="0%" y1="0%" x2="100%" y2="0%">
      <stop offset="0%" stop-color="#FFCDD2"/><stop offset="100%" stop-color="#EF9A9A"/>
    </linearGradient>
    <linearGradient id="investigating" x1="0%" y1="0%" x2="100%" y2="0%">
      <stop offset="0%" stop-color="#FFE0B2"/><stop offset="100%" stop-color="#FFCC80"/>
    </linearGradient>
    <linearGradient id="unknown" x1="0%" y1="0%" x2="100%" y2="0%">
      <stop offset="0%" stop-color="#FFF9C4"/><stop offset="100%" stop-color="#FFF176"/>
    </linearGradient>
  </defs>

  <!-- Title -->
  <text x="450" y="35" text-anchor="middle" font-size="18" font-weight="bold" fill="#333">Bug Status — Dequant Verification Against llama.cpp</text>
  <text x="450" y="55" text-anchor="middle" font-size="11" fill="#666">Reference: ~/llama.cpp/build/bin/llama-cli | Model: Qwen3.6-35B-A3B-UD-IQ2_M.gguf</text>

  <!-- Legend -->
  <rect x="150" y="75" width="14" height="14" rx="2" fill="#A5D6A7"/><text x="170" y="87" font-size="11" fill="#555">Verified correct vs ref</text>
  <rect x="370" y="75" width="14" height="14" rx="2" fill="#FFCC80"/><text x="390" y="87" font-size="11" fill="#555">Written but untested</text>
  <rect x="570" y="75" width="14" height="14" rx="2" fill="#EF9A9A"/><text x="590" y="87" font-size="11" fill="#555">Broken/needs fix</text>

  <!-- Dequant table -->
  <g transform="translate(100, 105)">
    <rect x="0" y="0" width="700" height="30" rx="4" fill="#333"/><text x="20" y="20" font-size="11" font-weight="bold" fill="white">Dequant</text><text x="160" y="20" font-size="11" font-weight="bold" fill="white">Status</text><text x="310" y="20" font-size="11" font-weight="bold" fill="white">Used In</text><text x="480" y="20" font-size="11" font-weight="bold" fill="white">Verified Against</text>

    <!-- Row 1: IQ2_XXS -->
    <rect x="0" y="35" width="700" height="28" rx="3" fill="#E8F5E9"/>
    <text x="20" y="54" font-size="11" font-weight="bold" fill="#2E7D32">IQ2_XXS (16)</text>
    <rect x="155" y="42" width="18" height="18" rx="9" fill="#4CAF50"/><text x="164" y="55" text-anchor="middle" font-size="10" fill="white">✓</text>
    <text x="310" y="54" font-size="10" fill="#555">gate_exps, up_exps (all)</text>
    <text x="480" y="54" font-size="10" fill="#555">dequantize_row_iq2_xxs()</text>

    <!-- Row 2: IQ2_S -->
    <rect x="0" y="68" width="700" height="28" rx="3" fill="#E8F5E9"/>
    <text x="20" y="87" font-size="11" font-weight="bold" fill="#2E7D32">IQ2_S (22)</text>
    <rect x="155" y="75" width="18" height="18" rx="9" fill="#4CAF50"/><text x="164" y="88" text-anchor="middle" font-size="10" fill="white">✓</text>
    <text x="310" y="87" font-size="10" fill="#555">— (not in this GGUF)</text>
    <text x="480" y="87" font-size="10" fill="#555">dequantize_row_iq2_s()</text>

    <!-- Row 3: IQ3_XXS -->
    <rect x="0" y="101" width="700" height="28" rx="3" fill="#E8F5E9"/>
    <text x="20" y="120" font-size="11" font-weight="bold" fill="#2E7D32">IQ3_XXS (18)</text>
    <rect x="155" y="108" width="18" height="18" rx="9" fill="#4CAF50"/><text x="164" y="121" text-anchor="middle" font-size="10" fill="white">✓</text>
    <text x="310" y="120" font-size="10" fill="#555">down_exps (37/40 layers)</text>
    <text x="480" y="120" font-size="10" fill="#555">dequantize_row_iq3_xxs()</text>

    <!-- Row 4: IQ4_XS -->
    <rect x="0" y="134" width="700" height="28" rx="3" fill="#FFF8E1"/>
    <text x="20" y="153" font-size="11" font-weight="bold" fill="#E65100">IQ4_XS (23)</text>
    <rect x="155" y="141" width="18" height="18" rx="9" fill="#FF9800"/><text x="164" y="154" text-anchor="middle" font-size="10" fill="white">?</text>
    <text x="310" y="153" font-size="10" fill="#555">down_exps (L34,38,39)</text>
    <text x="480" y="153" font-size="10" fill="#555">dequantize_row_iq4_xs()</text>

    <!-- Row 5: IQ1_M -->
    <rect x="0" y="167" width="700" height="28" rx="3" fill="#E8F5E9"/>
    <text x="20" y="186" font-size="11" font-weight="bold" fill="#2E7D32">IQ1_M (29)</text>
    <rect x="155" y="174" width="18" height="18" rx="9" fill="#4CAF50"/><text x="161" y="187" text-anchor="middle" font-size="9" fill="white">✓</text>
    <text x="310" y="186" font-size="10" fill="#555">— (FIXED, not in model)</text>
    <text x="480" y="186" font-size="10" fill="#555">dequantize_row_iq1_m()</text>

    <!-- Row 6: Q5_K -->
    <rect x="0" y="200" width="700" height="28" rx="3" fill="#E8F5E9"/>
    <text x="20" y="219" font-size="11" font-weight="bold" fill="#2E7D32">Q5_K (13)</text>
    <rect x="155" y="207" width="18" height="18" rx="9" fill="#4CAF50"/><text x="164" y="220" text-anchor="middle" font-size="10" fill="white">✓</text>
    <text x="310" y="219" font-size="10" fill="#555">attn_gate, qkv, shexp, embd</text>
    <text x="480" y="219" font-size="10" fill="#555">dequantize_row_q5_K()</text>

    <!-- Row 7: Q6_K -->
    <rect x="0" y="233" width="700" height="28" rx="3" fill="#E8F5E9"/>
    <text x="20" y="252" font-size="11" font-weight="bold" fill="#2E7D32">Q6_K (14)</text>
    <rect x="155" y="240" width="18" height="18" rx="9" fill="#4CAF50"/><text x="164" y="253" text-anchor="middle" font-size="10" fill="white">✓</text>
    <text x="310" y="252" font-size="10" fill="#555">ssm_out, shexp down</text>
    <text x="480" y="252" font-size="10" fill="#555">dequantize_row_q6_K()</text>

    <!-- Row 8: Q4_K -->
    <rect x="0" y="266" width="700" height="28" rx="3" fill="#E8F5E9"/>
    <text x="20" y="285" font-size="11" font-weight="bold" fill="#2E7D32">Q4_K (12)</text>
    <rect x="155" y="273" width="18" height="18" rx="9" fill="#4CAF50"/><text x="164" y="286" text-anchor="middle" font-size="10" fill="white">✓</text>
    <text x="310" y="285" font-size="10" fill="#555">output.weight</text>
    <text x="480" y="285" font-size="10" fill="#555">dequantize_row_q4_K()</text>
  </g>

  <!-- SSM bug box -->
  <rect x="50" y="310" width="800" height="80" rx="8" fill="#FFEBEE" stroke="#D32F2F" stroke-width="2"/>
  <text x="70" y="332" font-size="13" font-weight="bold" fill="#D32F2F">⚠️ SSM Divergence: NOT a dequant issue</text>
  <text x="70" y="352" font-size="11" fill="#555">SSM L0 cos_sim=0.40 vs llama.ccp at L0 BEFORE MoE runs. Dequants all verified correct.</text>
  <text x="70" y="372" font-size="11" fill="#555">Root cause is in SSM compute path: conv1d stack alignment, recurrence step, output projection, or residual connection.</text>

  <!-- Output box -->
  <rect x="50" y="400" width="800" height="60" rx="8" fill="#E3F2FD" stroke="#1565C0" stroke-width="1.5"/>
  <text x="70" y="420" font-size="12" font-weight="bold" fill="#1565C0">Output Comparison:</text>
  <text x="70" y="440" font-size="11" fill="#555">Ref: "Hello Here's a thinking process:"   |   Ours: "〈eon〉Hello_vendor"</text>
  <text x="70" y="455" font-size="11" fill="#888">Top-1 prefill: 'ore'(9.89) vs expected correct token (top-1 logit non-sensical)</text>
</svg>
