<svg xmlns="http://www.w3.org/2000/svg" viewBox="0 0 1200 1600" width="1200" height="1600">
  <defs>
    <linearGradient id="bgGrad" x1="0" y1="0" x2="0" y2="1">
      <stop offset="0%" stop-color="#1a1a2e"/>
      <stop offset="100%" stop-color="#16213e"/>
    </linearGradient>
    <linearGradient id="headerGrad" x1="0" y1="0" x2="1" y2="0">
      <stop offset="0%" stop-color="#0f3460"/>
      <stop offset="100%" stop-color="#1a1a4e"/>
    </linearGradient>
    <linearGradient id="ssmGrad" x1="0" y1="0" x2="1" y2="1">
      <stop offset="0%" stop-color="#0a8a3a"/>
      <stop offset="100%" stop-color="#0b6e30"/>
    </linearGradient>
    <linearGradient id="gqaGrad" x1="0" y1="0" x2="1" y2="1">
      <stop offset="0%" stop-color="#c75000"/>
      <stop offset="100%" stop-color="#a04000"/>
    </linearGradient>
    <linearGradient id="moeGrad" x1="0" y1="0" x2="1" y2="1">
      <stop offset="0%" stop-color="#4a0080"/>
      <stop offset="100%" stop-color="#3a0060"/>
    </linearGradient>
    <linearGradient id="embedGrad" x1="0" y1="0" x2="1" y2="1">
      <stop offset="0%" stop-color="#0066aa"/>
      <stop offset="100%" stop-color="#005588"/>
    </linearGradient>
    <linearGradient id="outGrad" x1="0" y1="0" x2="1" y2="1">
      <stop offset="0%" stop-color="#aa4400"/>
      <stop offset="100%" stop-color="#883300"/>
    </linearGradient>
    <linearGradient id="kvGrad" x1="0" y1="0" x2="1" y2="1">
      <stop offset="0%" stop-color="#008899"/>
      <stop offset="100%" stop-color="#006677"/>
    </linearGradient>
    <filter id="glow">
      <feGaussianBlur stdDeviation="2" result="coloredBlur"/>
      <feMerge>
        <feMergeNode in="coloredBlur"/>
        <feMergeNode in="SourceGraphic"/>
      </feMerge>
    </filter>
    <filter id="dropShadow">
      <feDropShadow dx="0" dy="2" stdDeviation="3" flood-color="#000" flood-opacity="0.4"/>
    </filter>
    <marker id="arrowGreen" markerWidth="10" markerHeight="7" refX="10" refY="3.5" orient="auto">
      <polygon points="0 0, 10 3.5, 0 7" fill="#00cc66"/>
    </marker>
    <marker id="arrowOrange" markerWidth="10" markerHeight="7" refX="10" refY="3.5" orient="auto">
      <polygon points="0 0, 10 3.5, 0 7" fill="#ff8800"/>
    </marker>
    <marker id="arrowBlue" markerWidth="10" markerHeight="7" refX="10" refY="3.5" orient="auto">
      <polygon points="0 0, 10 3.5, 0 7" fill="#4488ff"/>
    </marker>
    <marker id="arrowWhite" markerWidth="10" markerHeight="7" refX="10" refY="3.5" orient="auto">
      <polygon points="0 0, 10 3.5, 0 7" fill="#aaaacc"/>
    </marker>
  </defs>

  <!-- Background -->
  <rect x="0" y="0" width="1200" height="1600" fill="url(#bgGrad)"/>

  <!-- ===== TITLE HEADER ===== -->
  <rect x="0" y="0" width="1200" height="70" fill="url(#headerGrad)"/>
  <text x="600" y="28" text-anchor="middle" font-family="monospace" font-size="20" font-weight="bold" fill="#ffffff" filter="url(#glow)">bytropix INFERENCE PIPELINE</text>
  <text x="600" y="50" text-anchor="middle" font-family="monospace" font-size="13" fill="#88aadd">Phase 22: Q4_0 KV Cache 4:1</text>
  <text x="1150" y="50" text-anchor="end" font-family="monospace" font-size="11" fill="#66aaff">cos-sim ≈ 0.9994</text>

  <!-- ===== SECTION: STATUS BADGES ROW ===== -->
  <rect x="20" y="85" width="1160" height="48" rx="6" fill="#111133" stroke="#334466" stroke-width="1" opacity="0.8"/>
  <!-- Overall cos-sim -->
  <rect x="30" y="92" width="180" height="34" rx="4" fill="#003322" stroke="#00cc66" stroke-width="1"/>
  <text x="120" y="114" text-anchor="middle" font-family="monospace" font-size="12" fill="#00ff88">OVERALL cos-sim 0.9994</text>

  <!-- L31 note -->
  <rect x="220" y="92" width="200" height="34" rx="4" fill="#442200" stroke="#ff8800" stroke-width="1"/>
  <text x="320" y="108" text-anchor="middle" font-family="monospace" font-size="10" fill="#ffaa44">⚠ L31 cos-sim 0.9585</text>
  <text x="320" y="122" text-anchor="middle" font-family="monospace" font-size="9" fill="#cc8844">quant noise through 30 layers</text>

  <!-- 3:1 interleaved -->
  <rect x="430" y="92" width="180" height="34" rx="4" fill="#0a2240" stroke="#4488ff" stroke-width="1"/>
  <text x="520" y="114" text-anchor="middle" font-family="monospace" font-size="11" fill="#88ccff">3:1 SSM/GQA INTERLEAVED</text>

  <!-- gen_text_gpu -->
  <rect x="620" y="92" width="150" height="34" rx="4" fill="#330011" stroke="#ff3344" stroke-width="1"/>
  <text x="695" y="108" text-anchor="middle" font-family="monospace" font-size="10" fill="#ff5566">❌ gen_text_gpu</text>
  <text x="695" y="122" text-anchor="middle" font-family="monospace" font-size="9" fill="#cc4455">pre-existing hang</text>

  <!-- MTP -->
  <rect x="780" y="92" width="150" height="34" rx="4" fill="#330011" stroke="#ff3344" stroke-width="1"/>
  <text x="855" y="108" text-anchor="middle" font-family="monospace" font-size="10" fill="#ff5566">❌ MTP spec-decode</text>
  <text x="855" y="122" text-anchor="middle" font-family="monospace" font-size="9" fill="#cc4455">blocked at IQ2_M</text>

  <!-- GPU KV cache -->
  <rect x="940" y="92" width="230" height="34" rx="4" fill="#332200" stroke="#ffaa00" stroke-width="1"/>
  <text x="1055" y="108" text-anchor="middle" font-family="monospace" font-size="10" fill="#ffcc44">💤 GPU Q4_0 KV cache</text>
  <text x="1055" y="122" text-anchor="middle" font-family="monospace" font-size="9" fill="#cc9933">FP16 still on GPU (5.12GB)</text>

  <!-- ===== SECTION 1: TOKEN EMBEDDING ===== -->
  <text x="30" y="162" font-family="monospace" font-size="14" font-weight="bold" fill="#88ccff">TOKEN EMBEDDING</text>
  <line x1="30" y1="168" x2="1170" y2="168" stroke="#334466" stroke-width="0.5"/>

  <rect x="350" y="178" width="500" height="46" rx="8" fill="url(#embedGrad)" stroke="#4488ff" stroke-width="1.5" filter="url(#dropShadow)"/>
  <text x="600" y="198" text-anchor="middle" font-family="monospace" font-size="13" font-weight="bold" fill="#ffffff">TOKEN EMBEDDING</text>
  <text x="600" y="215" text-anchor="middle" font-family="monospace" font-size="11" fill="#aaccee">Q5_K  •  248320 × 2048</text>

  <!-- Arrow from embedding to layers -->
  <line x1="600" y1="224" x2="600" y2="260" stroke="#4488ff" stroke-width="2" marker-end="url(#arrowBlue)"/>

  <!-- ===== SECTION 2: 40-LAYER PIPELINE ===== -->
  <text x="30" y="270" font-family="monospace" font-size="14" font-weight="bold" fill="#88ccff">40-LAYER LOOP  (3:1 SSM/GQA Interleaved)</text>
  <line x1="30" y1="276" x2="1170" y2="276" stroke="#334466" stroke-width="0.5"/>

  <!-- Pipeline bar background -->
  <rect x="50" y="290" width="1100" height="30" rx="4" fill="#0a0a1e" stroke="#334466" stroke-width="1"/>

  <!-- SSM layer segments (green) - 30 layers -->
  <!-- GQA layer segments (orange) - 10 layers -->
  <!-- Pattern: SSM SSM SSM GQA (4 groups of 10 layers) = 40 layers -->
  <!-- Group 0: layers 0-3 -->
  <rect x="55" y="292" width="26" height="26" rx="2" fill="#0a8a3a" opacity="0.85"/><text x="68" y="309" text-anchor="middle" font-family="monospace" font-size="7" fill="#ccffcc">0</text>
  <rect x="83" y="292" width="26" height="26" rx="2" fill="#0a8a3a" opacity="0.85"/><text x="96" y="309" text-anchor="middle" font-family="monospace" font-size="7" fill="#ccffcc">1</text>
  <rect x="111" y="292" width="26" height="26" rx="2" fill="#0a8a3a" opacity="0.85"/><text x="124" y="309" text-anchor="middle" font-family="monospace" font-size="7" fill="#ccffcc">2</text>
  <rect x="139" y="292" width="26" height="26" rx="2" fill="#c75000" opacity="0.85"/><text x="152" y="309" text-anchor="middle" font-family="monospace" font-size="7" fill="#ffcc88">3</text>

  <!-- Group 1: layers 4-7 -->
  <rect x="172" y="292" width="26" height="26" rx="2" fill="#0a8a3a" opacity="0.85"/><text x="185" y="309" text-anchor="middle" font-family="monospace" font-size="7" fill="#ccffcc">4</text>
  <rect x="200" y="292" width="26" height="26" rx="2" fill="#0a8a3a" opacity="0.85"/><text x="213" y="309" text-anchor="middle" font-family="monospace" font-size="7" fill="#ccffcc">5</text>
  <rect x="228" y="292" width="26" height="26" rx="2" fill="#0a8a3a" opacity="0.85"/><text x="241" y="309" text-anchor="middle" font-family="monospace" font-size="7" fill="#ccffcc">6</text>
  <rect x="256" y="292" width="26" height="26" rx="2" fill="#c75000" opacity="0.85"/><text x="269" y="309" text-anchor="middle" font-family="monospace" font-size="7" fill="#ffcc88">7</text>

  <!-- Group 2: layers 8-11 -->
  <rect x="289" y="292" width="26" height="26" rx="2" fill="#0a8a3a" opacity="0.85"/><text x="302" y="309" text-anchor="middle" font-family="monospace" font-size="7" fill="#ccffcc">8</text>
  <rect x="317" y="292" width="26" height="26" rx="2" fill="#0a8a3a" opacity="0.85"/><text x="330" y="309" text-anchor="middle" font-family="monospace" font-size="7" fill="#ccffcc">9</text>
  <rect x="345" y="292" width="26" height="26" rx="2" fill="#0a8a3a" opacity="0.85"/><text x="358" y="309" text-anchor="middle" font-family="monospace" font-size="7" fill="#ccffcc">10</text>
  <rect x="373" y="292" width="26" height="26" rx="2" fill="#c75000" opacity="0.85"/><text x="386" y="309" text-anchor="middle" font-family="monospace" font-size="7" fill="#ffcc88">11</text>

  <!-- Group 3: layers 12-15 -->
  <rect x="406" y="292" width="26" height="26" rx="2" fill="#0a8a3a" opacity="0.85"/><text x="419" y="309" text-anchor="middle" font-family="monospace" font-size="7" fill="#ccffcc">12</text>
  <rect x="434" y="292" width="26" height="26" rx="2" fill="#0a8a3a" opacity="0.85"/><text x="447" y="309" text-anchor="middle" font-family="monospace" font-size="7" fill="#ccffcc">13</text>
  <rect x="462" y="292" width="26" height="26" rx="2" fill="#0a8a3a" opacity="0.85"/><text x="475" y="309" text-anchor="middle" font-family="monospace" font-size="7" fill="#ccffcc">14</text>
  <rect x="490" y="292" width="26" height="26" rx="2" fill="#c75000" opacity="0.85"/><text x="503" y="309" text-anchor="middle" font-family="monospace" font-size="7" fill="#ffcc88">15</text>

  <!-- Group 4: layers 16-19 -->
  <rect x="523" y="292" width="26" height="26" rx="2" fill="#0a8a3a" opacity="0.85"/><text x="536" y="309" text-anchor="middle" font-family="monospace" font-size="7" fill="#ccffcc">16</text>
  <rect x="551" y="292" width="26" height="26" rx="2" fill="#0a8a3a" opacity="0.85"/><text x="564" y="309" text-anchor="middle" font-family="monospace" font-size="7" fill="#ccffcc">17</text>
  <rect x="579" y="292" width="26" height="26" rx="2" fill="#0a8a3a" opacity="0.85"/><text x="592" y="309" text-anchor="middle" font-family="monospace" font-size="7" fill="#ccffcc">18</text>
  <rect x="607" y="292" width="26" height="26" rx="2" fill="#c75000" opacity="0.85"/><text x="620" y="309" text-anchor="middle" font-family="monospace" font-size="7" fill="#ffcc88">19</text>

  <!-- Group 5: layers 20-23 -->
  <rect x="640" y="292" width="26" height="26" rx="2" fill="#0a8a3a" opacity="0.85"/><text x="653" y="309" text-anchor="middle" font-family="monospace" font-size="7" fill="#ccffcc">20</text>
  <rect x="668" y="292" width="26" height="26" rx="2" fill="#0a8a3a" opacity="0.85"/><text x="681" y="309" text-anchor="middle" font-family="monospace" font-size="7" fill="#ccffcc">21</text>
  <rect x="696" y="292" width="26" height="26" rx="2" fill="#0a8a3a" opacity="0.85"/><text x="709" y="309" text-anchor="middle" font-family="monospace" font-size="7" fill="#ccffcc">22</text>
  <rect x="724" y="292" width="26" height="26" rx="2" fill="#c75000" opacity="0.85"/><text x="737" y="309" text-anchor="middle" font-family="monospace" font-size="7" fill="#ffcc88">23</text>

  <!-- Group 6: layers 24-27 -->
  <rect x="757" y="292" width="26" height="26" rx="2" fill="#0a8a3a" opacity="0.85"/><text x="770" y="309" text-anchor="middle" font-family="monospace" font-size="7" fill="#ccffcc">24</text>
  <rect x="785" y="292" width="26" height="26" rx="2" fill="#0a8a3a" opacity="0.85"/><text x="798" y="309" text-anchor="middle" font-family="monospace" font-size="7" fill="#ccffcc">25</text>
  <rect x="813" y="292" width="26" height="26" rx="2" fill="#0a8a3a" opacity="0.85"/><text x="826" y="309" text-anchor="middle" font-family="monospace" font-size="7" fill="#ccffcc">26</text>
  <rect x="841" y="292" width="26" height="26" rx="2" fill="#c75000" opacity="0.85"/><text x="854" y="309" text-anchor="middle" font-family="monospace" font-size="7" fill="#ffcc88">27</text>

  <!-- Group 7: layers 28-31 -->
  <rect x="874" y="292" width="26" height="26" rx="2" fill="#0a8a3a" opacity="0.85"/><text x="887" y="309" text-anchor="middle" font-family="monospace" font-size="7" fill="#ccffcc">28</text>
  <rect x="902" y="292" width="26" height="26" rx="2" fill="#0a8a3a" opacity="0.85"/><text x="915" y="309" text-anchor="middle" font-family="monospace" font-size="7" fill="#ccffcc">29</text>
  <rect x="930" y="292" width="26" height="26" rx="2" fill="#0a8a3a" opacity="0.85"/><text x="943" y="309" text-anchor="middle" font-family="monospace" font-size="7" fill="#ccffcc">30</text>
  <!-- L31 highlighted in red -->
  <rect x="958" y="292" width="26" height="26" rx="2" fill="#880022" stroke="#ff3344" stroke-width="1.5" opacity="0.95"/><text x="971" y="309" text-anchor="middle" font-family="monospace" font-size="7" fill="#ff8888">31</text>

  <!-- Group 8: layers 32-35 -->
  <rect x="55" y="320" width="26" height="26" rx="2" fill="#0a8a3a" opacity="0.85"/><text x="68" y="337" text-anchor="middle" font-family="monospace" font-size="7" fill="#ccffcc">32</text>
  <rect x="83" y="320" width="26" height="26" rx="2" fill="#0a8a3a" opacity="0.85"/><text x="96" y="337" text-anchor="middle" font-family="monospace" font-size="7" fill="#ccffcc">33</text>
  <rect x="111" y="320" width="26" height="26" rx="2" fill="#0a8a3a" opacity="0.85"/><text x="124" y="337" text-anchor="middle" font-family="monospace" font-size="7" fill="#ccffcc">34</text>
  <rect x="139" y="320" width="26" height="26" rx="2" fill="#c75000" opacity="0.85"/><text x="152" y="337" text-anchor="middle" font-family="monospace" font-size="7" fill="#ffcc88">35</text>

  <!-- Group 9: layers 36-39 -->
  <rect x="172" y="320" width="26" height="26" rx="2" fill="#0a8a3a" opacity="0.85"/><text x="185" y="337" text-anchor="middle" font-family="monospace" font-size="7" fill="#ccffcc">36</text>
  <rect x="200" y="320" width="26" height="26" rx="2" fill="#0a8a3a" opacity="0.85"/><text x="213" y="337" text-anchor="middle" font-family="monospace" font-size="7" fill="#ccffcc">37</text>
  <rect x="228" y="320" width="26" height="26" rx="2" fill="#0a8a3a" opacity="0.85"/><text x="241" y="337" text-anchor="middle" font-family="monospace" font-size="7" fill="#ccffcc">38</text>
  <rect x="256" y="320" width="26" height="26" rx="2" fill="#c75000" opacity="0.85"/><text x="269" y="337" text-anchor="middle" font-family="monospace" font-size="7" fill="#ffcc88">39</text>

  <!-- Legend -->
  <rect x="320" y="295" width="14" height="14" rx="2" fill="#0a8a3a"/>
  <text x="338" y="307" font-family="monospace" font-size="10" fill="#88cc88">SSM (30 layers)</text>
  <rect x="440" y="295" width="14" height="14" rx="2" fill="#c75000"/>
  <text x="458" y="307" font-family="monospace" font-size="10" fill="#ffaa66">GQA (10 layers)</text>
  <rect x="540" y="295" width="14" height="14" rx="2" fill="#880022" stroke="#ff3344" stroke-width="1"/>
  <text x="558" y="307" font-family="monospace" font-size="10" fill="#ff6666">L31 (degraded)</text>

  <!-- Arrow from layers to SSM detail -->
  <line x1="600" y1="348" x2="600" y2="380" stroke="#00cc66" stroke-width="2" marker-end="url(#arrowGreen)"/>

  <!-- ===== SECTION 3: SSM LAYER DETAIL ===== -->
  <text x="30" y="393" font-family="monospace" font-size="14" font-weight="bold" fill="#88ff88">SSM LAYER  (Layers 0,1,2,4,5,6,8,9,10,12,13,14,16,17,18,20,21,22,24,25,26,28,29,30,32,33,34,36,37,38)</text>
  <line x1="30" y1="399" x2="1170" y2="399" stroke="#334466" stroke-width="0.5"/>

  <!-- SSM flow diagram -->
  <rect x="50" y="410" width="1100" height="130" rx="8" fill="#0a2210" stroke="#0a8a3a" stroke-width="1" opacity="0.6"/>

  <!-- SSM boxes in flow -->
  <rect x="65" y="425" width="95" height="32" rx="4" fill="#0d4a1e" stroke="#00cc66" stroke-width="1"/>
  <text x="112" y="445" text-anchor="middle" font-family="monospace" font-size="9" fill="#88ff88">RMSNorm</text>

  <line x1="160" y1="441" x2="185" y2="441" stroke="#00cc66" stroke-width="1.5" marker-end="url(#arrowGreen)"/>

  <rect x="185" y="425" width="110" height="32" rx="4" fill="#0d4a1e" stroke="#00cc66" stroke-width="1"/>
  <text x="240" y="442" text-anchor="middle" font-family="monospace" font-size="8" fill="#88ff88">attn_qkv</text>
  <text x="240" y="454" text-anchor="middle" font-family="monospace" font-size="7" fill="#66cc66">Q5_K</text>

  <line x1="295" y1="441" x2="315" y2="441" stroke="#00cc66" stroke-width="1.5" marker-end="url(#arrowGreen)"/>

  <rect x="315" y="425" width="95" height="32" rx="4" fill="#0d4a1e" stroke="#00cc66" stroke-width="1"/>
  <text x="362" y="442" text-anchor="middle" font-family="monospace" font-size="8" fill="#88ff88">gate</text>
  <text x="362" y="454" text-anchor="middle" font-family="monospace" font-size="7" fill="#66cc66">Q5_K</text>

  <line x1="410" y1="441" x2="430" y2="441" stroke="#00cc66" stroke-width="1.5" marker-end="url(#arrowGreen)"/>

  <rect x="430" y="425" width="85" height="32" rx="4" fill="#0d4a1e" stroke="#00cc66" stroke-width="1"/>
  <text x="472" y="445" text-anchor="middle" font-family="monospace" font-size="8" fill="#88ff88">conv1d</text>

  <line x1="515" y1="441" x2="530" y2="441" stroke="#00cc66" stroke-width="1.5" marker-end="url(#arrowGreen)"/>

  <rect x="530" y="425" width="70" height="32" rx="4" fill="#0d4a1e" stroke="#00cc66" stroke-width="1"/>
  <text x="565" y="445" text-anchor="middle" font-family="monospace" font-size="9" fill="#88ff88">SiLU</text>

  <line x1="600" y1="441" x2="615" y2="441" stroke="#00cc66" stroke-width="1.5" marker-end="url(#arrowGreen)"/>

  <rect x="615" y="425" width="75" height="32" rx="4" fill="#0d4a1e" stroke="#00cc66" stroke-width="1"/>
  <text x="652" y="445" text-anchor="middle" font-family="monospace" font-size="8" fill="#88ff88">split</text>

  <line x1="690" y1="441" x2="710" y2="441" stroke="#00cc66" stroke-width="1.5" marker-end="url(#arrowGreen)"/>

  <rect x="710" y="425" width="85" height="32" rx="4" fill="#0d4a1e" stroke="#00cc66" stroke-width="1"/>
  <text x="752" y="445" text-anchor="middle" font-family="monospace" font-size="8" fill="#88ff88">L2norm</text>

  <line x1="795" y1="441" x2="815" y2="441" stroke="#00cc66" stroke-width="1.5" marker-end="url(#arrowGreen)"/>

  <rect x="815" y="425" width="120" height="32" rx="4" fill="#0d4a1e" stroke="#00cc66" stroke-width="1"/>
  <text x="875" y="442" text-anchor="middle" font-family="monospace" font-size="8" fill="#88ff88">SSM recurrent</text>
  <text x="875" y="454" text-anchor="middle" font-family="monospace" font-size="7" fill="#66cc66">state space</text>

  <!-- Second row for SSM -->
  <line x1="875" y1="457" x2="875" y2="478" stroke="#00cc66" stroke-width="1.5"/>

  <rect x="800" y="478" width="150" height="32" rx="4" fill="#0d4a1e" stroke="#00cc66" stroke-width="1"/>
  <text x="875" y="495" text-anchor="middle" font-family="monospace" font-size="8" fill="#88ff88">gated norm</text>
  <text x="875" y="507" text-anchor="middle" font-family="monospace" font-size="7" fill="#66cc66">+ ssm_out Q6_K</text>

  <line x1="800" y1="494" x2="720" y2="494" stroke="#00cc66" stroke-width="1.5" marker-end="url(#arrowGreen)"/>

  <rect x="600" y="478" width="120" height="32" rx="4" fill="#1a4a2e" stroke="#00ff88" stroke-width="1.5"/>
  <text x="660" y="495" text-anchor="middle" font-family="monospace" font-size="8" fill="#88ff88">gated ×</text>
  <text x="660" y="507" text-anchor="middle" font-family="monospace" font-size="7" fill="#66cc66">+ residual</text>

  <!-- cos-sim badge for SSM -->
  <rect x="65" y="470" width="140" height="18" rx="9" fill="#003322" stroke="#00cc66" stroke-width="0.5"/>
  <text x="135" y="483" text-anchor="middle" font-family="monospace" font-size="8" fill="#00ff88">✅ cos-sim 0.998-0.9999</text>

  <!-- Status indicator -->
  <circle cx="1070" cy="441" r="10" fill="#00cc66"/>
  <text x="1070" y="445" text-anchor="middle" font-family="monospace" font-size="11" font-weight="bold" fill="#000000">✓</text>
  <text x="1090" y="445" font-family="monospace" font-size="10" fill="#88ff88">VERIFIED</text>

  <!-- Arrow from SSM to GQA -->
  <line x1="600" y1="542" x2="600" y2="575" stroke="#ff8800" stroke-width="2" marker-end="url(#arrowOrange)"/>

  <!-- ===== SECTION 4: GQA LAYER DETAIL ===== -->
  <text x="30" y="588" font-family="monospace" font-size="14" font-weight="bold" fill="#ffaa66">GQA LAYER  (Layers 3,7,11,15,19,23,27,31,35,39)</text>
  <line x1="30" y1="594" x2="1170" y2="594" stroke="#334466" stroke-width="0.5"/>

  <rect x="50" y="605" width="1100" height="140" rx="8" fill="#221508" stroke="#c75000" stroke-width="1" opacity="0.6"/>

  <!-- GQA first row -->
  <rect x="65" y="620" width="85" height="30" rx="4" fill="#4a2000" stroke="#ff8800" stroke-width="1"/>
  <text x="107" y="639" text-anchor="middle" font-family="monospace" font-size="9" fill="#ffaa66">RMSNorm</text>

  <line x1="150" y1="635" x2="170" y2="635" stroke="#ff8800" stroke-width="1.5" marker-end="url(#arrowOrange)"/>

  <rect x="170" y="620" width="95" height="30" rx="4" fill="#4a2000" stroke="#ff8800" stroke-width="1"/>
  <text x="217" y="637" text-anchor="middle" font-family="monospace" font-size="8" fill="#ffaa66">attn_q</text>
  <text x="217" y="648" text-anchor="middle" font-family="monospace" font-size="7" fill="#cc8844">Q5_K</text>

  <line x1="265" y1="635" x2="285" y2="635" stroke="#ff8800" stroke-width="1.5" marker-end="url(#arrowOrange)"/>

  <rect x="285" y="620" width="85" height="30" rx="4" fill="#4a2000" stroke="#ff8800" stroke-width="1"/>
  <text x="327" y="637" text-anchor="middle" font-family="monospace" font-size="8" fill="#ffaa66">gate</text>
  <text x="327" y="648" text-anchor="middle" font-family="monospace" font-size="7" fill="#cc8844">Q5_K</text>

  <line x1="370" y1="635" x2="390" y2="635" stroke="#ff8800" stroke-width="1.5" marker-end="url(#arrowOrange)"/>

  <rect x="390" y="620" width="90" height="30" rx="4" fill="#4a2000" stroke="#ff8800" stroke-width="1"/>
  <text x="435" y="637" text-anchor="middle" font-family="monospace" font-size="8" fill="#ffaa66">attn_k</text>
  <text x="435" y="648" text-anchor="middle" font-family="monospace" font-size="7" fill="#cc8844">Q5_K</text>

  <line x1="480" y1="635" x2="500" y2="635" stroke="#ff8800" stroke-width="1.5" marker-end="url(#arrowOrange)"/>

  <rect x="500" y="620" width="90" height="30" rx="4" fill="#4a2000" stroke="#ff8800" stroke-width="1"/>
  <text x="545" y="637" text-anchor="middle" font-family="monospace" font-size="8" fill="#ffaa66">attn_v</text>
  <text x="545" y="648" text-anchor="middle" font-family="monospace" font-size="7" fill="#cc8844">Q5_K</text>

  <line x1="590" y1="635" x2="610" y2="635" stroke="#ff8800" stroke-width="1.5" marker-end="url(#arrowOrange)"/>

  <rect x="610" y="620" width="95" height="30" rx="4" fill="#4a2000" stroke="#ff8800" stroke-width="1"/>
  <text x="657" y="637" text-anchor="middle" font-family="monospace" font-size="8" fill="#ffaa66">IMRoPE</text>
  <text x="657" y="648" text-anchor="middle" font-family="monospace" font-size="7" fill="#cc8844">position</text>

  <line x1="705" y1="635" x2="725" y2="635" stroke="#ff8800" stroke-width="1.5" marker-end="url(#arrowOrange)"/>

  <rect x="725" y="620" width="120" height="30" rx="4" fill="#1a4433" stroke="#44cc88" stroke-width="1.5"/>
  <text x="785" y="637" text-anchor="middle" font-family="monospace" font-size="8" fill="#88ffaa">attention</text>
  <text x="785" y="648" text-anchor="middle" font-family="monospace" font-size="7" fill="#66cc88">KV Q4_0</text>

  <!-- Second row GQA -->
  <line x1="785" y1="650" x2="785" y2="672" stroke="#ff8800" stroke-width="1.5"/>

  <rect x="700" y="672" width="170" height="30" rx="4" fill="#4a2000" stroke="#ff8800" stroke-width="1"/>
  <text x="785" y="689" text-anchor="middle" font-family="monospace" font-size="8" fill="#ffaa66">output Q5_K + sigmoid(gate)×</text>
  <text x="785" y="700" text-anchor="middle" font-family="monospace" font-size="7" fill="#cc8844">+ residual</text>

  <!-- GQA cos-sim badges -->
  <rect x="65" y="660" width="140" height="18" rx="9" fill="#442200" stroke="#ff8800" stroke-width="0.5"/>
  <text x="135" y="673" text-anchor="middle" font-family="monospace" font-size="8" fill="#ffaa44">✅ cos-sim 0.958-0.999</text>

  <!-- L31 special badge -->
  <rect x="65" y="685" width="220" height="18" rx="9" fill="#441111" stroke="#ff3344" stroke-width="0.5"/>
  <text x="175" y="698" text-anchor="middle" font-family="monospace" font-size="8" fill="#ff6666">❌ L31 cos-sim 0.9585 (quant noise)</text>

  <circle cx="1070" cy="635" r="10" fill="#ff8800"/>
  <text x="1070" y="639" text-anchor="middle" font-family="monospace" font-size="11" font-weight="bold" fill="#000000">!</text>
  <text x="1090" y="639" font-family="monospace" font-size="10" fill="#ffaa66">WARN</text>

  <!-- Arrow to KV cache -->
  <line x1="1085" y1="720" x2="1085" y2="755" stroke="#44cc88" stroke-width="1.5"/>

  <!-- ===== SECTION 5: KV CACHE ===== -->
  <rect x="50" y="755" width="500" height="55" rx="8" fill="url(#kvGrad)" stroke="#44dddd" stroke-width="1.5" filter="url(#dropShadow)"/>
  <text x="300" y="777" text-anchor="middle" font-family="monospace" font-size="12" font-weight="bold" fill="#ffffff">Q4_0 KV CACHE</text>
  <text x="300" y="795" text-anchor="middle" font-family="monospace" font-size="10" fill="#aaeeee">720MB at 256k  •  ✅ cos-sim 0.9994</text>

  <!-- GPU KV cache note -->
  <rect x="600" y="755" width="550" height="55" rx="8" fill="#332200" stroke="#ffaa00" stroke-width="1.5" filter="url(#dropShadow)"/>
  <text x="875" y="777" text-anchor="middle" font-family="monospace" font-size="12" font-weight="bold" fill="#ffcc44">💤 GPU KV CACHE (FP16)</text>
  <text x="875" y="795" text-anchor="middle" font-family="monospace" font-size="10" fill="#cc9933">5.12GB  •  still on GPU  •  not quantized yet</text>

  <!-- Arrow from KV cache to MoE -->
  <line x1="300" y1="810" x2="300" y2="845" stroke="#00cc66" stroke-width="2" marker-end="url(#arrowGreen)"/>

  <!-- ===== SECTION 6: MoE ===== -->
  <text x="30" y="858" font-family="monospace" font-size="14" font-weight="bold" fill="#cc88ff">POST-ATTN MoE</text>
  <line x1="30" y1="864" x2="1170" y2="864" stroke="#334466" stroke-width="0.5"/>

  <rect x="50" y="875" width="1100" height="155" rx="8" fill="#1a0028" stroke="#7a00cc" stroke-width="1" opacity="0.6"/>

  <!-- MoE flow -->
  <rect x="65" y="890" width="110" height="34" rx="4" fill="#2a0040" stroke="#9944ff" stroke-width="1"/>
  <text x="120" y="905" text-anchor="middle" font-family="monospace" font-size="8" fill="#bb88ff">Post-attn</text>
  <text x="120" y="917" text-anchor="middle" font-family="monospace" font-size="7" fill="#9966cc">RMSNorm</text>

  <line x1="175" y1="907" x2="200" y2="907" stroke="#9944ff" stroke-width="1.5" marker-end="url(#arrowWhite)"/>

  <rect x="200" y="890" width="130" height="34" rx="4" fill="#3a0060" stroke="#bb66ff" stroke-width="1.5"/>
  <text x="265" y="905" text-anchor="middle" font-family="monospace" font-size="8" fill="#cc99ff">MoE Router</text>
  <text x="265" y="917" text-anchor="middle" font-family="monospace" font-size="7" fill="#aa77dd">F32</text>

  <line x1="330" y1="907" x2="355" y2="907" stroke="#9944ff" stroke-width="1.5" marker-end="url(#arrowWhite)"/>

  <rect x="355" y="890" width="150" height="34" rx="4" fill="#2a0040" stroke="#9944ff" stroke-width="1"/>
  <text x="430" y="905" text-anchor="middle" font-family="monospace" font-size="8" fill="#bb88ff">Top-8 / 256 experts</text>
  <text x="430" y="917" text-anchor="middle" font-family="monospace" font-size="7" fill="#9966cc">gate/up: IQ2_XXS</text>

  <line x1="505" y1="907" x2="530" y2="907" stroke="#9944ff" stroke-width="1.5" marker-end="url(#arrowWhite)"/>

  <rect x="530" y="890" width="150" height="34" rx="4" fill="#2a0040" stroke="#9944ff" stroke-width="1"/>
  <text x="605" y="905" text-anchor="middle" font-family="monospace" font-size="8" fill="#bb88ff">Expert FFN</text>
  <text x="605" y="917" text-anchor="middle" font-family="monospace" font-size="7" fill="#9966cc">down: IQ3_XXS</text>

  <line x1="680" y1="907" x2="705" y2="907" stroke="#9944ff" stroke-width="1.5" marker-end="url(#arrowWhite)"/>

  <!-- Shared expert -->
  <rect x="705" y="890" width="160" height="34" rx="4" fill="#3a0050" stroke="#cc88ff" stroke-width="1.5"/>
  <text x="785" y="905" text-anchor="middle" font-family="monospace" font-size="8" fill="#ddaaff">Shared Expert</text>
  <text x="785" y="917" text-anchor="middle" font-family="monospace" font-size="7" fill="#aa77dd">Q5_K / Q6_K</text>

  <line x1="865" y1="907" x2="890" y2="907" stroke="#9944ff" stroke-width="1.5" marker-end="url(#arrowWhite)"/>

  <rect x="890" y="890" width="110" height="34" rx="4" fill="#2a0040" stroke="#9944ff" stroke-width="1"/>
  <text x="945" y="907" text-anchor="middle" font-family="monospace" font-size="8" fill="#bb88ff">+ Residual</text>

  <!-- MoE second row details -->
  <rect x="200" y="940" width="190" height="40" rx="6" fill="#1a0030" stroke="#bb66ff" stroke-width="0.5"/>
  <text x="295" y="957" text-anchor="middle" font-family="monospace" font-size="8" fill="#bb88ff">Top-K routing</text>
  <text x="295" y="971" text-anchor="middle" font-family="monospace" font-size="7" fill="#8866aa">256 experts, top-8 active</text>

  <rect x="530" y="940" width="190" height="40" rx="6" fill="#1a0030" stroke="#bb66ff" stroke-width="0.5"/>
  <text x="625" y="957" text-anchor="middle" font-family="monospace" font-size="8" fill="#bb88ff">Expert sparsity</text>
  <text x="625" y="971" text-anchor="middle" font-family="monospace" font-size="7" fill="#8866aa">8/256 = 3.125% active</text>

  <!-- MoE cos-sim -->
  <rect x="65" y="990" width="140" height="18" rx="9" fill="#1a0030" stroke="#9944ff" stroke-width="0.5"/>
  <text x="135" y="1003" text-anchor="middle" font-family="monospace" font-size="8" fill="#cc88ff">✅ cos-sim verified</text>

  <circle cx="1070" cy="907" r="10" fill="#9944ff"/>
  <text x="1070" y="911" text-anchor="middle" font-family="monospace" font-size="11" font-weight="bold" fill="#ffffff">✓</text>
  <text x="1090" y="911" font-family="monospace" font-size="10" fill="#cc88ff">VERIFIED</text>

  <!-- Arrow to output -->
  <line x1="600" y1="1032" x2="600" y2="1070" stroke="#4488ff" stroke-width="2" marker-end="url(#arrowBlue)"/>

  <!-- ===== SECTION 7: OUTPUT PROJECTION & SAMPLING ===== -->
  <text x="30" y="1083" font-family="monospace" font-size="14" font-weight="bold" fill="#88ccff">OUTPUT &amp; SAMPLING</text>
  <line x1="30" y1="1089" x2="1170" y2="1089" stroke="#334466" stroke-width="0.5"/>

  <rect x="50" y="1100" width="1100" height="120" rx="8" fill="#1a0e08" stroke="#aa4400" stroke-width="1" opacity="0.6"/>

  <!-- RMSNorm -->
  <rect x="100" y="1115" width="120" height="40" rx="4" fill="#2a1508" stroke="#cc6633" stroke-width="1"/>
  <text x="160" y="1135" text-anchor="middle" font-family="monospace" font-size="10" fill="#ffaa66">Final RMSNorm</text>
  <text x="160" y="1150" text-anchor="middle" font-family="monospace" font-size="8" fill="#cc8844">→</text>

  <line x1="220" y1="1135" x2="260" y2="1135" stroke="#cc6633" stroke-width="2" marker-end="url(#arrowOrange)"/>

  <!-- Output projection -->
  <rect x="260" y="1115" width="200" height="40" rx="6" fill="url(#outGrad)" stroke="#ff7744" stroke-width="1.5" filter="url(#dropShadow)"/>
  <text x="360" y="1135" text-anchor="middle" font-family="monospace" font-size="11" font-weight="bold" fill="#ffffff">OUTPUT PROJ</text>
  <text x="360" y="1150" text-anchor="middle" font-family="monospace" font-size="9" fill="#ffaa88">Q4_K  •  2048×248320</text>

  <line x1="460" y1="1135" x2="500" y2="1135" stroke="#cc6633" stroke-width="2" marker-end="url(#arrowOrange)"/>

  <!-- Sampling -->
  <rect x="500" y="1115" width="180" height="40" rx="6" fill="#2a1a00" stroke="#ffdd44" stroke-width="1.5" filter="url(#dropShadow)"/>
  <text x="590" y="1135" text-anchor="middle" font-family="monospace" font-size="11" font-weight="bold" fill="#ffdd44">SAMPLING</text>
  <text x="590" y="1150" text-anchor="middle" font-family="monospace" font-size="9" fill="#ccaa33">next token</text>

  <!-- gen_text_gpu hang note -->
  <rect x="720" y="1115" width="220" height="40" rx="6" fill="#330011" stroke="#ff3344" stroke-width="1.5"/>
  <text x="830" y="1135" text-anchor="middle" font-family="monospace" font-size="9" fill="#ff5566">❌ gen_text_gpu HANG</text>
  <text x="830" y="1150" text-anchor="middle" font-family="monospace" font-size="8" fill="#cc4455">pre-existing issue</text>

  <!-- MTP note -->
  <rect x="960" y="1115" width="170" height="40" rx="6" fill="#330011" stroke="#ff3344" stroke-width="1.5"/>
  <text x="1045" y="1135" text-anchor="middle" font-family="monospace" font-size="9" fill="#ff5566">❌ MTP spec-decode</text>
  <text x="1045" y="1150" text-anchor="middle" font-family="monospace" font-size="8" fill="#cc4455">blocked at IQ2_M</text>

  <!-- ===== BOTTOM: LEGEND & STATUS SUMMARY ===== -->
  <line x1="30" y1="1240" x2="1170" y2="1240" stroke="#334466" stroke-width="1"/>

  <rect x="30" y="1255" width="1140" height="310" rx="8" fill="#0e0e20" stroke="#334466" stroke-width="1" opacity="0.8"/>

  <text x="600" y="1280" text-anchor="middle" font-family="monospace" font-size="14" font-weight="bold" fill="#88ccff">STATUS SUMMARY &amp; LEGEND</text>

  <!-- Status table -->
  <rect x="50" y="1295" width="540" height="30" rx="3" fill="#0a1a0a" stroke="#334466" stroke-width="0.5"/>
  <text x="60" y="1315" font-family="monospace" font-size="10" font-weight="bold" fill="#88ff88">✅ SSM forward</text>
  <text x="260" y="1315" font-family="monospace" font-size="10" fill="#aaddaa">cos-sim 0.998 - 0.9999</text>
  <text x="540" y="1315" text-anchor="end" font-family="monospace" font-size="10" fill="#00cc66">VERIFIED</text>

  <rect x="50" y="1328" width="540" height="30" rx="3" fill="#1a0e00" stroke="#334466" stroke-width="0.5"/>
  <text x="60" y="1348" font-family="monospace" font-size="10" font-weight="bold" fill="#ffaa44">⚠ GQA attention</text>
  <text x="260" y="1348" font-family="monospace" font-size="10" fill="#ddaa66">cos-sim 0.958 - 0.999</text>
  <text x="540" y="1348" text-anchor="end" font-family="monospace" font-size="10" fill="#ff8800">PARTIAL</text>

  <rect x="50" y="1361" width="540" height="30" rx="3" fill="#0a1a1a" stroke="#334466" stroke-width="0.5"/>
  <text x="60" y="1381" font-family="monospace" font-size="10" font-weight="bold" fill="#88dddd">✅ Q4_0 KV cache</text>
  <text x="260" y="1381" font-family="monospace" font-size="10" fill="#aacccc">720MB at 256k, cos-sim 0.9994</text>
  <text x="540" y="1381" text-anchor="end" font-family="monospace" font-size="10" fill="#00cccc">VERIFIED</text>

  <rect x="50" y="1394" width="540" height="30" rx="3" fill="#0a001a" stroke="#334466" stroke-width="0.5"/>
  <text x="60" y="1414" font-family="monospace" font-size="10" font-weight="bold" fill="#bb88ff">✅ MoE</text>
  <text x="260" y="1414" font-family="monospace" font-size="10" fill="#aa88cc">cos-sim verified</text>
  <text x="540" y="1414" text-anchor="end" font-family="monospace" font-size="10" fill="#9944ff">VERIFIED</text>

  <rect x="50" y="1427" width="540" height="30" rx="3" fill="#1a0008" stroke="#ff3344" stroke-width="0.5"/>
  <text x="60" y="1447" font-family="monospace" font-size="10" font-weight="bold" fill="#ff5566">❌ gen_text_gpu</text>
  <text x="260" y="1447" font-family="monospace" font-size="10" fill="#cc6666">pre-existing hang</text>
  <text x="540" y="1447" text-anchor="end" font-family="monospace" font-size="10" fill="#ff3344">BROKEN</text>

  <!-- Right column -->
  <rect x="610" y="1295" width="540" height="30" rx="3" fill="#1a0008" stroke="#ff3344" stroke-width="0.5"/>
  <text x="620" y="1315" font-family="monospace" font-size="10" font-weight="bold" fill="#ff5566">❌ L31 cos-sim 0.9585</text>
  <text x="830" y="1315" font-family="monospace" font-size="10" fill="#cc6666">quantization noise through 30 layers</text>
  <text x="1140" y="1315" text-anchor="end" font-family="monospace" font-size="10" fill="#ff3344">DEGRADED</text>

  <rect x="610" y="1328" width="540" height="30" rx="3" fill="#1a1a00" stroke="#ffaa00" stroke-width="0.5"/>
  <text x="620" y="1348" font-family="monospace" font-size="10" font-weight="bold" fill="#ffcc44">💤 GPU Q4_0 KV cache</text>
  <text x="830" y="1348" font-family="monospace" font-size="10" fill="#ccaa44">FP16 still on GPU, 5.12GB</text>
  <text x="1140" y="1348" text-anchor="end" font-family="monospace" font-size="10" fill="#ffaa00">PENDING</text>

  <rect x="610" y="1361" width="540" height="30" rx="3" fill="#1a0008" stroke="#ff3344" stroke-width="0.5"/>
  <text x="620" y="1381" font-family="monospace" font-size="10" font-weight="bold" fill="#ff5566">❌ MTP spec-decode</text>
  <text x="830" y="1381" font-family="monospace" font-size="10" fill="#cc6666">blocked at IQ2_M</text>
  <text x="1140" y="1381" text-anchor="end" font-family="monospace" font-size="10" fill="#ff3344">BROKEN</text>

  <!-- Quant legend -->
  <text x="600" y="1420" text-anchor="middle" font-family="monospace" font-size="12" font-weight="bold" fill="#88aadd">QUANTIZATION LEGEND</text>

  <rect x="610" y="1430" width="60" height="16" rx="2" fill="#0066aa" opacity="0.8"/>
  <text x="640" y="1443" text-anchor="middle" font-family="monospace" font-size="8" fill="#ffffff">Q5_K</text>
  <text x="678" y="1443" font-family="monospace" font-size="8" fill="#88aacc">— Embed, attn, gate proj</text>

  <rect x="610" y="1452" width="60" height="16" rx="2" fill="#1a4a2e" opacity="0.8"/>
  <text x="640" y="1465" text-anchor="middle" font-family="monospace" font-size="8" fill="#ffffff">Q6_K</text>
  <text x="678" y="1465" font-family="monospace" font-size="8" fill="#88aacc">— SSM out</text>

  <rect x="610" y="1474" width="60" height="16" rx="2" fill="#008899" opacity="0.8"/>
  <text x="640" y="1487" text-anchor="middle" font-family="monospace" font-size="8" fill="#ffffff">Q4_0</text>
  <text x="678" y="1487" font-family="monospace" font-size="8" fill="#88aacc">— KV cache</text>

  <rect x="610" y="1496" width="60" height="16" rx="2" fill="#883300" opacity="0.8"/>
  <text x="640" y="1509" text-anchor="middle" font-family="monospace" font-size="8" fill="#ffffff">Q4_K</text>
  <text x="678" y="1509" font-family="monospace" font-size="8" fill="#88aacc">— Output projection</text>

  <rect x="850" y="1430" width="60" height="16" rx="2" fill="#4a0080" opacity="0.8"/>
  <text x="880" y="1443" text-anchor="middle" font-family="monospace" font-size="7" fill="#ffffff">IQ2_XXS</text>
  <text x="918" y="1443" font-family="monospace" font-size="8" fill="#88aacc">— MoE gate/up</text>

  <rect x="850" y="1452" width="60" height="16" rx="2" fill="#5a0080" opacity="0.8"/>
  <text x="880" y="1465" text-anchor="middle" font-family="monospace" font-size="7" fill="#ffffff">IQ3_XXS</text>
  <text x="918" y="1465" font-family="monospace" font-size="8" fill="#88aacc">— MoE down</text>

  <rect x="850" y="1474" width="60" height="16" rx="2" fill="#006666" opacity="0.8"/>
  <text x="880" y="1487" text-anchor="middle" font-family="monospace" font-size="8" fill="#ffffff">F32</text>
  <text x="918" y="1487" font-family="monospace" font-size="8" fill="#88aacc">— MoE router</text>

  <!-- Footer -->
  <text x="600" y="1540" text-anchor="middle" font-family="monospace" font-size="9" fill="#445566">bytropix inference pipeline v22  •  Diagram generated 2026-05-19</text>

  <!-- Cos-sim callout boxes -->
  <rect x="50" y="1460" width="220" height="55" rx="8" fill="#003322" stroke="#00cc66" stroke-width="1.5" opacity="0.9"/>
  <text x="160" y="1480" text-anchor="middle" font-family="monospace" font-size="10" font-weight="bold" fill="#00ff88">OVERALL COS-SIM: 0.9994</text>
  <text x="160" y="1498" text-anchor="middle" font-family="monospace" font-size="9" fill="#88cc88">L31 degraded to 0.9585</text>
  <text x="160" y="1510" text-anchor="middle" font-family="monospace" font-size="8" fill="#668866">(30 layers of quantization noise)</text>

  <!-- Layer count callout -->
  <rect x="290" y="1460" width="240" height="55" rx="8" fill="#0a2240" stroke="#4488ff" stroke-width="1.5" opacity="0.9"/>
  <text x="410" y="1480" text-anchor="middle" font-family="monospace" font-size="10" font-weight="bold" fill="#88ccff">40 LAYERS: 30 SSM + 10 GQA</text>
  <text x="410" y="1498" text-anchor="middle" font-family="monospace" font-size="9" fill="#88aacc">3:1 interleaved pattern</text>
  <text x="410" y="1510" text-anchor="middle" font-family="monospace" font-size="8" fill="#6688aa">SSM SSM SSM GQA (×10)</text>

</svg>