<svg xmlns="http://www.w3.org/2000/svg" viewBox="0 0 1000 700" font-family="monospace">
  <defs>
    <linearGradient id="gpu" x1="0%" y1="0%" x2="100%" y2="100%">
      <stop offset="0%" stop-color="#E3F2FD"/>
      <stop offset="100%" stop-color="#BBDEFB"/>
    </linearGradient>
    <linearGradient id="fixed" x1="0%" y1="0%" x2="100%" y2="0%">
      <stop offset="0%" stop-color="#C8E6C9"/>
      <stop offset="100%" stop-color="#A5D6A7"/>
    </linearGradient>
    <linearGradient id="broken" x1="0%" y1="0%" x2="100%" y2="0%">
      <stop offset="0%" stop-color="#FFCDD2"/>
      <stop offset="100%" stop-color="#EF9A9A"/>
    </linearGradient>
    <linearGradient id="unknown" x1="0%" y1="0%" x2="100%" y2="0%">
      <stop offset="0%" stop-color="#FFF9C4"/>
      <stop offset="100%" stop-color="#FFF176"/>
    </linearGradient>
    <marker id="arrow" markerWidth="10" markerHeight="7" refX="10" refY="3.5" orient="auto">
      <polygon points="0 0, 10 3.5, 0 7" fill="#555"/>
    </marker>
  </defs>

  <!-- Title -->
  <text x="500" y="35" text-anchor="middle" font-size="20" font-weight="bold" fill="#D32F2F">🔥 INFERENCE DEBUG — Current Pipeline (May 17 PM)</text>
  <text x="500" y="55" text-anchor="middle" font-size="12" fill="#666">Output: ⟨eon⟩Hello_vendor (WRONG) vs ref: "Hello Here's a" — SSM L0 cos_sim=0.40</text>

  <!-- Tokenizer -->
  <rect x="50" y="80" width="160" height="55" rx="8" fill="url(#fixed)" stroke="#4CAF50" stroke-width="2"/>
  <text x="130" y="100" text-anchor="middle" font-size="13" font-weight="bold" fill="#2E7D32">Tokenizer ✓</text>
  <text x="130" y="118" text-anchor="middle" font-size="10" fill="#555">GGUF native (gpt2)</text>
  <text x="130" y="132" text-anchor="middle" font-size="10" fill="#555">BOS=248044</text>

  <!-- Embed -->
  <rect x="270" y="80" width="160" height="55" rx="8" fill="url(#fixed)" stroke="#4CAF50" stroke-width="2"/>
  <text x="350" y="100" text-anchor="middle" font-size="13" font-weight="bold" fill="#2E7D32">Embed ✓</text>
  <text x="350" y="118" text-anchor="middle" font-size="10" fill="#555">Q5_K dequant</text>
  <text x="350" y="132" text-anchor="middle" font-size="10" fill="#555">2048-dim output</text>

  <line x1="210" y1="107" x2="270" y2="107" stroke="#555" stroke-width="2" marker-end="url(#arrow)"/>

  <!-- 40 Layers box -->
  <rect x="490" y="70" width="460" height="75" rx="10" fill="#FFF3E0" stroke="#FF9800" stroke-width="2"/>
  <text x="720" y="92" text-anchor="middle" font-size="13" font-weight="bold" fill="#E65100">40 Layers (30 SSM + 10 GQA)</text>
  <text x="720" y="110" text-anchor="middle" font-size="10" fill="#555">SSM cos_sim=0.40 at L0 ⚠️</text>
  <text x="720" y="126" font-size="10" fill="#555">  MoE: IQ3_XXS (37/40) + IQ4_XS (3/40) | GQA: Q5_K attn</text>

  <line x1="430" y1="107" x2="490" y2="107" stroke="#555" stroke-width="2" marker-end="url(#arrow)"/>

  <!-- MoE detail box -->
  <rect x="50" y="170" width="900" height="130" rx="8" fill="#F5F5F5" stroke="#999" stroke-width="1"/>
  <text x="70" y="192" font-size="12" font-weight="bold" fill="#333">Per-Layer Detail (40×):</text>
  
  <rect x="70" y="205" width="120" height="40" rx="5" fill="url(#fixed)" stroke="#4CAF50"/>
  <text x="130" y="223" text-anchor="middle" font-size="10" font-weight="bold" fill="#2E7D32">RMS Norm ✓</text>
  <text x="130" y="237" text-anchor="middle" font-size="9" fill="#555">rms_norm(ω,x)</text>

  <line x1="190" y1="225" x2="215" y2="225" stroke="#555" stroke-width="1.5" marker-end="url(#arrow)"/>

  <rect x="215" y="205" width="120" height="40" rx="5" fill="url(#unknown)" stroke="#F57F17"/>
  <text x="275" y="223" text-anchor="middle" font-size="10" font-weight="bold" fill="#E65100">SSM/GQA ?</text>
  <text x="275" y="237" text-anchor="middle" font-size="9" fill="#555">cos_sim=0.40 at L0</text>

  <line x1="335" y1="225" x2="360" y2="225" stroke="#555" stroke-width="1.5" marker-end="url(#arrow)"/>

  <rect x="360" y="205" width="120" height="40" rx="5" fill="url(#fixed)" stroke="#4CAF50"/>
  <text x="420" y="223" text-anchor="middle" font-size="10" font-weight="bold" fill="#2E7D32">MoE Router ✓</text>
  <text x="420" y="237" text-anchor="middle" font-size="9" fill="#555">F32 gate_inp</text>

  <line x1="480" y1="225" x2="505" y2="225" stroke="#555" stroke-width="1.5" marker-end="url(#arrow)"/>

  <rect x="505" y="200" width="140" height="50" rx="5" fill="url(#fixed)" stroke="#4CAF50"/>
  <text x="575" y="218" text-anchor="middle" font-size="10" font-weight="bold" fill="#2E7D32">Top-8 Experts ✓</text>
  <text x="575" y="234" text-anchor="middle" font-size="9" fill="#555">gate/up: IQ2_XXS</text>
  <text x="575" y="248" text-anchor="middle" font-size="9" fill="#555">down: IQ3_XXS/IQ4_XS</text>

  <line x1="645" y1="225" x2="670" y2="225" stroke="#555" stroke-width="1.5" marker-end="url(#arrow)"/>

  <rect x="670" y="200" width="130" height="50" rx="5" fill="url(#fixed)" stroke="#4CAF50"/>
  <text x="735" y="218" text-anchor="middle" font-size="10" font-weight="bold" fill="#2E7D32">Shared Expert ✓</text>
  <text x="735" y="234" text-anchor="middle" font-size="9" fill="#555">gate: Q5_K</text>
  <text x="735" y="248" text-anchor="middle" font-size="9" fill="#555">down: Q6_K</text>

  <line x1="800" y1="225" x2="830" y2="225" stroke="#555" stroke-width="1.5" marker-end="url(#arrow)"/>

  <rect x="830" y="205" width="100" height="40" rx="5" fill="url(#fixed)" stroke="#4CAF50"/>
  <text x="880" y="223" text-anchor="middle" font-size="10" font-weight="bold" fill="#2E7D32">Residual ✓</text>
  <text x="880" y="237" text-anchor="middle" font-size="9" fill="#555">x += moe_out</text>

  <!-- Arrow down to output -->
  <line x1="720" y1="145" x2="720" y2="170" stroke="#555" stroke-width="2" marker-end="url(#arrow)"/>
  <line x1="720" y1="300" x2="720" y2="330" stroke="#555" stroke-width="2" marker-end="url(#arrow)"/>

  <!-- Output projection -->
  <rect x="560" y="330" width="320" height="55" rx="8" fill="url(#fixed)" stroke="#4CAF50" stroke-width="2"/>
  <text x="720" y="350" text-anchor="middle" font-size="13" font-weight="bold" fill="#2E7D32">Output Projection ✓</text>
  <text x="720" y="368" text-anchor="middle" font-size="10" fill="#555">cublasSgemm 248K×2048 × 1</text>
  <text x="720" y="382" text-anchor="middle" font-size="10" fill="#555">output.weight: Q4_K | RMS norm: F32</text>

  <line x1="720" y1="385" x2="720" y2="415" stroke="#555" stroke-width="2" marker-end="url(#arrow)"/>

  <!-- Sample + Output -->
  <rect x="560" y="415" width="320" height="55" rx="8" fill="url(#unknown)" stroke="#F57F17" stroke-width="2"/>
  <text x="720" y="435" text-anchor="middle" font-size="13" font-weight="bold" fill="#E65100">Sampling ?</text>
  <text x="720" y="453" text-anchor="middle" font-size="10" fill="#555">Greedy (temp=0, top-k=1)</text>
  <text x="720" y="467" text-anchor="middle" font-size="10" fill="#888">Output: ⟨eon⟩Hello_vendor</text>

  <!-- Bottom status legend -->
  <rect x="50" y="500" width="900" height="175" rx="8" fill="#FAFAFA" stroke="#DDD"/>
  <text x="70" y="520" font-size="13" font-weight="bold" fill="#333">Quant Type Summary (from GGUF metadata — CORRECTED):</text>

  <rect x="70" y="535" width="120" height="20" rx="3" fill="#C8E6C9"/><text x="195" y="550" font-size="10" fill="#555">gate_exps / up_exps: IQ2_XXS (all)</text>
  <rect x="70" y="560" width="120" height="20" rx="3" fill="#C8E6C9"/><text x="195" y="575" font-size="10" fill="#555">down_exps: IQ3_XXS (layers 0-33, 35-37)</text>
  <rect x="70" y="585" width="120" height="20" rx="3" fill="#FFF9C4"/><text x="195" y="600" font-size="10" fill="#555">down_exps: IQ4_XS (layers 34, 38, 39)</text>
  <rect x="70" y="610" width="120" height="20" rx="3" fill="#C8E6C9"/><text x="195" y="625" font-size="10" fill="#555">shexp gate/up: Q5_K | shexp down: Q6_K</text>
  <rect x="70" y="635" width="120" height="20" rx="3" fill="#C8E6C9"/><text x="195" y="650" font-size="10" fill="#555">ssm_out: Q6_K | output.weight: Q4_K | embd: Q5_K</text>

  <text x="500" y="550" font-size="11" font-weight="bold" fill="#333">Legend:</text>
  <rect x="500" y="560" width="14" height="14" rx="2" fill="#A5D6A7"/><text x="520" y="572" font-size="10" fill="#555">  Fixed/Verified vs llama.cpp</text>
  <rect x="500" y="580" width="14" height="14" rx="2" fill="#FFF176"/><text x="520" y="592" font-size="10" fill="#555">  Untested/Unknown</text>
  <rect x="500" y="600" width="14" height="14" rx="2" fill="#EF9A9A"/><text x="520" y="612" font-size="10" fill="#555">  Broken</text>
</svg>
