<svg xmlns="http://www.w3.org/2000/svg" viewBox="0 0 900 820" font-family="'Courier New', monospace" font-size="12">
  <rect width="900" height="820" fill="#1a1a2e"/>
  <text x="20" y="30" fill="#ff4444" font-size="16" font-weight="bold">bytropix — Status May 21 2026 — Phase 28b DA Audit</text>
  <text x="20" y="46" fill="#888" font-size="11">Qwen3.6-35B-A3B-UD-IQ2_M | RTX 5050 8GB | GPU_SUPPORT live — SSM GPU path UNVERIFIED</text>

  <!-- Phase boxes -->
  <rect x="20" y="58" width="100" height="24" rx="4" fill="#0d3b0d" stroke="#00ff88" stroke-width="1"/>
  <text x="28" y="74" fill="#00ff88" font-size="10">Phases 0-14</text>
  <rect x="128" y="58" width="100" height="24" rx="4" fill="#0d3b0d" stroke="#00ff88" stroke-width="1"/>
  <text x="136" y="74" fill="#00ff88" font-size="10">Phases 15-22</text>
  <rect x="236" y="58" width="130" height="24" rx="4" fill="#0d3b0d" stroke="#00ff88" stroke-width="1"/>
  <text x="244" y="74" fill="#00ff88" font-size="10">Phases 23-24 (Q4_0)</text>
  <rect x="374" y="58" width="130" height="24" rx="4" fill="#3d3d0d" stroke="#ffaa00" stroke-width="1"/>
  <text x="382" y="74" fill="#ffaa00" font-size="10">Phases 25-26 (Fused) 🟡</text>
  <rect x="512" y="58" width="150" height="24" rx="4" fill="#0d3b0d" stroke="#00ff88" stroke-width="1"/>
  <text x="520" y="74" fill="#00ff88" font-size="10">Phase 27 (row_major)</text>
  <rect x="670" y="58" width="150" height="24" rx="4" fill="#3d0d0d" stroke="#ff4444" stroke-width="2"/>
  <text x="678" y="74" fill="#ff4444" font-size="10">Phase 28 (GPU_SUPPORT)</text>

  <!-- DA Flag -->
  <rect x="20" y="88" width="860" height="34" rx="4" fill="#3d0d0d" stroke="#ff4444" stroke-width="2"/>
  <text x="450" y="102" fill="#ff4444" font-size="13" text-anchor="middle" font-weight="bold">⚠️ DA AUDIT: SSM GPU Path NEVER Verified — F32 Waste ~2.2 GB — Memory Leak ~5.5 GB</text>
  <text x="450" y="116" fill="#ff6644" font-size="11" text-anchor="middle">"It compiles and runs" does not mean "it works correctly." All previous cos-sim claims for GPU code are now 🟡 or ❓.</text>

  <!-- Performance table -->
  <text x="20" y="140" fill="#ffaa00" font-size="14" font-weight="bold">▸ PERFORMANCE (DA corrected — all GPU data from BEFORE GPU_SUPPORT fix)</text>
  <line x1="20" y1="146" x2="860" y2="146" stroke="#333" stroke-width="1"/>

  <text x="20" y="164" fill="#888" font-size="11">Condition</text>
  <text x="280" y="164" fill="#888" font-size="11">Prefill</text>
  <text x="380" y="164" fill="#888" font-size="11">Decode</text>
  <text x="480" y="164" fill="#888" font-size="11">Status</text>
  <text x="560" y="164" fill="#888" font-size="11">Note</text>
  <line x1="20" y1="168" x2="860" y2="168" stroke="#333" stroke-width="1"/>

  <text x="20" y="186" fill="#ccc" font-size="12">CPU, 4K ctx</text>
  <text x="280" y="186" fill="#0ff" font-size="12">11</text>
  <text x="380" y="186" fill="#0ff" font-size="12">8.8</text>
  <text x="480" y="186" fill="#00ff88" font-size="12">✅</text>
  <text x="560" y="186" fill="#aaa" font-size="11">gen_text, cpu-only</text>

  <text x="20" y="206" fill="#ccc" font-size="12">GPU, 4K ctx (OLD)</text>
  <text x="280" y="206" fill="#0ff" font-size="12">22.8</text>
  <text x="380" y="206" fill="#0ff" font-size="12">8.5-9.2</text>
  <text x="480" y="206" fill="#ffaa00" font-size="12">🟡</text>
  <text x="560" y="206" fill="#aaa" font-size="11">SSM was on CPU (GPU_SUPPORT dead)</text>

  <text x="20" y="226" fill="#ccc" font-size="12">GPU, 4K ctx (NEW)</text>
  <text x="280" y="226" fill="#ff4444" font-size="12">?</text>
  <text x="380" y="226" fill="#ff4444" font-size="12">?</text>
  <text x="480" y="226" fill="#ff4444" font-size="12">❓</text>
  <text x="560" y="226" fill="#aaa" font-size="11">UNVERIFIED — GPU SSM path active, cos-sim=0</text>

  <text x="20" y="246" fill="#ccc" font-size="12">GPU, 256k full</text>
  <text x="280" y="246" fill="#0ff" font-size="12">23.5</text>
  <text x="380" y="246" fill="#0ff" font-size="12">4.8</text>
  <text x="480" y="246" fill="#ffaa00" font-size="12">🟡</text>
  <text x="560" y="246" fill="#aaa" font-size="11">with old GPU_SUPPORT (dead)</text>

  <text x="20" y="266" fill="#ccc" font-size="12">RTX 4060 Ti ref</text>
  <text x="280" y="266" fill="#ff4444" font-size="12">—</text>
  <text x="380" y="266" fill="#ff4444" font-size="12">35.4</text>
  <text x="480" y="266" fill="#ffaa00" font-size="12">🟡 ref</text>
  <text x="560" y="266" fill="#aaa" font-size="11">llama.cpp -ncmoe 30 (not our hardware)</text>

  <!-- DA findings table -->
  <text x="20" y="296" fill="#ff4444" font-size="14" font-weight="bold">▸ DA AUDIT FINDINGS (Phase 28b)</text>
  <line x1="20" y1="302" x2="860" y2="302" stroke="#333" stroke-width="1"/>

  <text x="20" y="320" fill="#888" font-size="11">Severity</text>
  <text x="90" y="320" fill="#888" font-size="11">Finding</text>
  <text x="400" y="320" fill="#888" font-size="11">Fix</text>
  <line x1="20" y1="324" x2="860" y2="324" stroke="#333" stroke-width="1"/>

  <text x="20" y="342" fill="#ff4444" font-size="12">🔴 P0</text>
  <text x="90" y="342" fill="#ccc" font-size="11">F32 dequant weights: 2.2 GB VRAM wasted</text>
  <text x="400" y="342" fill="#aaa" font-size="11">#if 0 blocks in wubu_model_gpu.cu:436-504</text>

  <text x="20" y="360" fill="#ff4444" font-size="12">🔴 P0</text>
  <text x="90" y="360" fill="#ccc" font-size="11">GPU mem leak: 5.5 GB never freed</text>
  <text x="400" y="360" fill="#aaa" font-size="11">Add wubu_cuda_free() loops in free()</text>

  <text x="20" y="378" fill="#ff4444" font-size="12">🔴 P0</text>
  <text x="90" y="378" fill="#ccc" font-size="11">Prefill N>1: broken column-major kernel</text>
  <text x="400" y="378" fill="#aaa" font-size="11">Change to row_major in ssm_project()</text>

  <text x="20" y="396" fill="#ff4444" font-size="12">🔴 P0</text>
  <text x="90" y="396" fill="#ccc" font-size="11">gen_text.c: hardcoded 1-token prompt</text>
  <text x="400" y="396" fill="#aaa" font-size="11">Read prompt from argv</text>

  <text x="20" y="414" fill="#ffaa00" font-size="12">🟡 P1</text>
  <text x="90" y="414" fill="#ccc" font-size="11">SSM GPU path: COS-SIM = 0 comparisons</text>
  <text x="400" y="414" fill="#aaa" font-size="11">Compare vs CPU path via DUMP_LAYER_DIR</text>

  <text x="20" y="432" fill="#ffaa00" font-size="12">🟡 P1</text>
  <text x="90" y="432" fill="#ccc" font-size="11">Phase 26 fused kernels: verified vs DEAD CODE</text>
  <text x="400" y="432" fill="#aaa" font-size="11">Compare vs CPU path in full pipeline</text>

  <!-- GPU path diagram -->
  <text x="20" y="464" fill="#ffaa00" font-size="14" font-weight="bold">▸ GPU SSM PATH — HONEST STATE</text>
  <line x1="20" y1="470" x2="860" y2="470" stroke="#333" stroke-width="1"/>

  <!-- CPU path box -->
  <rect x="30" y="480" width="200" height="60" rx="4" fill="#0d3b0d" stroke="#00ff88" stroke-width="1"/>
  <text x="130" y="500" fill="#00ff88" font-size="11" text-anchor="middle">CPU SSM Path</text>
  <text x="130" y="516" fill="#aaa" font-size="10" text-anchor="middle">wubu_ssm_forward()</text>
  <text x="130" y="530" fill="#00ff88" font-size="10" text-anchor="middle">✅ Verified vs llama.cpp</text>

  <!-- GPU path box -->
  <rect x="280" y="480" width="200" height="60" rx="4" fill="#3d0d0d" stroke="#ff4444" stroke-width="2" stroke-dasharray="4,2"/>
  <text x="380" y="500" fill="#ff4444" font-size="11" text-anchor="middle">GPU SSM Path</text>
  <text x="380" y="516" fill="#ff4444" font-size="10" text-anchor="middle">forward_full()</text>
  <text x="380" y="530" fill="#ff4444" font-size="10" text-anchor="middle">❓ UNVERIFIED — cos-sim = 0</text>

  <!-- Fallback box -->
  <rect x="530" y="480" width="200" height="60" rx="4" fill="#3d0d0d" stroke="#ff4444" stroke-width="2"/>
  <text x="630" y="500" fill="#ff4444" font-size="11" text-anchor="middle">Prefill Fallback</text>
  <text x="630" y="516" fill="#ff4444" font-size="10" text-anchor="middle">ssm_project()</text>
  <text x="630" y="530" fill="#ff4444" font-size="10" text-anchor="middle">🔴 Uses BROKEN column-major kernel</text>

  <!-- VRAM breakdown -->
  <text x="20" y="560" fill="#ffaa00" font-size="14" font-weight="bold">▸ VRAM AT 256k (DA corrected)</text>
  <line x1="20" y1="566" x2="860" y2="566" stroke="#333" stroke-width="1"/>

  <text x="20" y="584" fill="#888" font-size="11">Component</text>
  <text x="280" y="584" fill="#888" font-size="11">Claimed (old)</text>
  <text x="420" y="584" fill="#888" font-size="11">Actual</text>
  <text x="560" y="584" fill="#888" font-size="11">Note</text>
  <line x1="20" y1="588" x2="860" y2="588" stroke="#333" stroke-width="1"/>

  <text x="20" y="606" fill="#ccc" font-size="12">GQA weights (F32)</text>
  <text x="280" y="606" fill="#aaa" font-size="11">1,040 MB</text>
  <text x="420" y="606" fill="#aaa" font-size="11">1,040 MB</text>
  <text x="560" y="606" fill="#00ff88" font-size="11">✅ OK</text>

  <text x="20" y="624" fill="#ccc" font-size="12">SSM quant weights</text>
  <text x="280" y="624" fill="#aaa" font-size="11">692 MB</text>
  <text x="420" y="624" fill="#aaa" font-size="11">~2,266 MB</text>
  <text x="560" y="624" fill="#ff4444" font-size="11">🔴 Old figure was wrong</text>

  <text x="20" y="642" fill="#ccc" font-size="12">F32 dequant (DEAD)</text>
  <text x="280" y="642" fill="#aaa" font-size="11">(not listed)</text>
  <text x="420" y="642" fill="#aaa" font-size="11">~2,266 MB</text>
  <text x="560" y="642" fill="#ff4444" font-size="11">🔴 NEVER USED, never freed</text>

  <text x="20" y="660" fill="#ccc" font-size="12">KV cache (Q4_0)</text>
  <text x="280" y="660" fill="#aaa" font-size="11">1,440 MB</text>
  <text x="420" y="660" fill="#aaa" font-size="11">1,440 MB</text>
  <text x="560" y="660" fill="#00ff88" font-size="11">✅ OK</text>

  <text x="20" y="678" fill="#ccc" font-size="12">Output proj + MoE</text>
  <text x="280" y="678" fill="#aaa" font-size="11">~2,360 MB</text>
  <text x="420" y="678" fill="#aaa" font-size="11">~2,360 MB</text>
  <text x="560" y="678" fill="#ffaa00" font-size="11">🟡 OK</text>

  <line x1="20" y1="686" x2="860" y2="686" stroke="#333" stroke-width="1"/>
  <text x="20" y="702" fill="#ff4444" font-size="12" font-weight="bold">TOTAL</text>
  <text x="280" y="702" fill="#ff4444" font-size="12">~3,562 MB ❌</text>
  <text x="420" y="702" fill="#ff4444" font-size="12">~7,372 MB</text>
  <text x="560" y="702" fill="#ff4444" font-size="11">🔴 DOES NOT FIT 8GB GPU!</text>

  <!-- Next steps -->
  <text x="20" y="732" fill="#ffaa00" font-size="14" font-weight="bold">▸ P0 FIXES (Phase 28b)</text>
  <line x1="20" y1="738" x2="860" y2="738" stroke="#333" stroke-width="1"/>

  <text x="30" y="756" fill="#ff4444" font-size="11">1. 🔴 Remove F32 dequant upload (save 2.2 GB VRAM, fix VRAM budget)</text>
  <text x="30" y="772" fill="#ff4444" font-size="11">2. 🔴 Fix wubu_model_gpu_free() memory leak (free 6×40 GPU arrays)</text>
  <text x="30" y="788" fill="#ff4444" font-size="11">3. 🔴 Fix prefill N>1 fallback (use row_major kernel)</text>
  <text x="30" y="804" fill="#ff4444" font-size="11">4. 🔴 Fix gen_text.c prompt (enable proper testing)</text>

  <text x="450" y="820" fill="#666" font-size="10" text-anchor="middle">DA principle: "It compiles" ≠ "it works" — every claim must be verified at runtime against a reference.</text>
</svg>