<svg xmlns="http://www.w3.org/2000/svg" viewBox="0 0 900 800" font-family="'Courier New', monospace" font-size="12">
  <rect width="900" height="800" fill="#1a1a2e"/>
  <text x="20" y="30" fill="#00ff88" font-size="16" font-weight="bold">bytropix — Status May 19 2026 (18:55) — Phase 9.5 Complete</text>
  <text x="20" y="46" fill="#888" font-size="11">Qwen3.6-35B-A3B-UD-IQ2_M | Ryzen 7950X | Cos-sim 0.9967 ✓ | 7.0 tok/s decode | 256k F16 KV cache</text>

  <!-- Phase boxes -->
  <rect x="20" y="58" width="165" height="24" rx="4" fill="#0d3b0d" stroke="#00ff88" stroke-width="1"/>
  <text x="28" y="74" fill="#00ff88" font-size="11">Phases 0-7 ✓ Core</text>
  <rect x="195" y="58" width="200" height="24" rx="4" fill="#0d3b0d" stroke="#00ff88" stroke-width="1"/>
  <text x="203" y="74" fill="#00ff88" font-size="11">Phase 8 ✓ MoE OMP+Prefetch</text>
  <rect x="405" y="58" width="200" height="24" rx="4" fill="#0d3b0d" stroke="#00ff88" stroke-width="1"/>
  <text x="413" y="74" fill="#ff4444" font-size="11" font-weight="bold">Phase 9.5 ✓ Q6_K BUG FIXED</text>
  <rect x="615" y="58" width="265" height="24" rx="4" fill="#0d3b0d" stroke="#00ff88" stroke-width="1"/>
  <text x="623" y="74" fill="#00ff88" font-size="11">Phase 10 ✓ KV Cache 256k F16</text>

  <!-- Big Result Banner -->
  <rect x="20" y="90" width="860" height="28" rx="4" fill="#003300" stroke="#00ff88" stroke-width="2"/>
  <text x="450" y="109" fill="#00ff88" font-size="14" font-weight="bold" text-anchor="middle">★ 1:1 PARITY ACHIEVED — COS-SIM 0.9967 ★</text>

  <!-- Benchmarks table -->
  <text x="20" y="140" fill="#ffaa00" font-size="14" font-weight="bold">▸ LIVE BENCHMARKS (DA verified)</text>
  <line x1="20" y1="146" x2="860" y2="146" stroke="#333" stroke-width="1"/>

  <text x="20" y="164" fill="#888" font-size="11">Metric</text>
  <text x="300" y="164" fill="#888" font-size="11">Value</text>
  <text x="450" y="164" fill="#888" font-size="11">Status</text>
  <text x="560" y="164" fill="#888" font-size="11">Method</text>
  <line x1="20" y1="168" x2="860" y2="168" stroke="#333" stroke-width="1"/>

  <text x="20" y="186" fill="#ccc" font-size="12">Full model cos-sim</text>
  <text x="300" y="186" fill="#00ff88" font-size="12">0.9967</text>
  <text x="450" y="186" fill="#00ff88" font-size="12">✅ 1:1 Parity</text>
  <text x="560" y="186" fill="#aaa" font-size="11">test_full_moe vs ref_dumper</text>

  <text x="20" y="206" fill="#ccc" font-size="12">Q6_K matmul vs F32</text>
  <text x="300" y="206" fill="#00ff88" font-size="12">0.99986</text>
  <text x="450" y="206" fill="#ff4444" font-size="12">⚠️ was 0.728 → FIXED</text>
  <text x="560" y="206" fill="#aaa" font-size="11">test_q5q6 vs F32 SGEMM</text>

  <text x="20" y="226" fill="#ccc" font-size="12">Decode speed</text>
  <text x="300" y="226" fill="#00ff88" font-size="12">7.0 tok/s</text>
  <text x="450" y="226" fill="#00ff88" font-size="12">✅ Verified</text>
  <text x="560" y="226" fill="#aaa" font-size="11">32 tok in 4.56s, gen_text</text>

  <text x="20" y="246" fill="#ccc" font-size="12">Prefill speed</text>
  <text x="300" y="246" fill="#00ff88" font-size="12">10.4 tok/s</text>
  <text x="450" y="246" fill="#00ff88" font-size="12">✅ Verified</text>
  <text x="560" y="246" fill="#aaa" font-size="11">5-token prompt</text>

  <text x="20" y="266" fill="#ccc" font-size="12">Output proj decode</text>
  <text x="300" y="266" fill="#ff8800" font-size="12">~10ms</text>
  <text x="450" y="266" fill="#00ff88" font-size="12">✅ Verified</text>
  <text x="560" y="266" fill="#aaa" font-size="11">PROFILE=1, Q4_K 2048×248320</text>

  <text x="20" y="286" fill="#ccc" font-size="12">MoE decode / layer</text>
  <text x="300" y="286" fill="#00ff88" font-size="12">~2.1ms</text>
  <text x="450" y="286" fill="#00ff88" font-size="12">✅ Verified</text>
  <text x="560" y="286" fill="#aaa" font-size="11">PROFILE=1 L0-L2 MoE timing</text>

  <text x="20" y="306" fill="#ccc" font-size="12">SSM decode / layer</text>
  <text x="300" y="306" fill="#00ff88" font-size="12">~1.0ms</text>
  <text x="450" y="306" fill="#00ff88" font-size="12">✅ Verified</text>
  <text x="560" y="306" fill="#aaa" font-size="11">PROFILE=1 L0-L2 SSM timing</text>

  <text x="20" y="326" fill="#ccc" font-size="12">KV cache size</text>
  <text x="300" y="326" fill="#00ff88" font-size="12">262144 F16</text>
  <text x="450" y="326" fill="#00ff88" font-size="12">✅ Expanded</text>
  <text x="560" y="326" fill="#aaa" font-size="11">was 4096 F32 — 5GB saved</text>

  <text x="20" y="346" fill="#ccc" font-size="12">Llama dependency</text>
  <text x="300" y="346" fill="#00ff88" font-size="12">NONE</text>
  <text x="450" y="346" fill="#00ff88" font-size="12">✅ Self-hosted</text>
  <text x="560" y="346" fill="#aaa" font-size="11">ldd gen_text: no libllama</text>

  <text x="20" y="366" fill="#ccc" font-size="12">gen_text output</text>
  <text x="300" y="366" fill="#00ff88" font-size="12">COHERENT</text>
  <text x="450" y="366" fill="#00ff88" font-size="12">✅ Verified</text>
  <text x="560" y="366" fill="#aaa" font-size="11">'"The capital of France is..." '</text>

  <!-- Bottleneck Distribution -->
  <text x="20" y="400" fill="#ffaa00" font-size="14" font-weight="bold">▸ BOTTLENECK DISTRIBUTION (decode, 16 threads)</text>
  <line x1="20" y1="406" x2="860" y2="406" stroke="#333" stroke-width="1"/>

  <!-- MoE bar -->
  <text x="20" y="428" fill="#ccc" font-size="12">MoE (40 × 2.1ms)</text>
  <rect x="300" y="416" width="340" height="16" rx="3" fill="#662200"/>
  <rect x="300" y="416" width="340" height="16" rx="3" fill="#ff6600" opacity="0.8"/>
  <text x="650" y="428" fill="#ff8800" font-size="12">84ms (63%)</text>

  <!-- SSM bar -->
  <text x="20" y="450" fill="#ccc" font-size="12">SSM+GQA (40 × 1.0ms)</text>
  <rect x="300" y="438" width="340" height="16" rx="3" fill="#003366"/>
  <rect x="300" y="438" width="162" height="16" rx="3" fill="#4488ff" opacity="0.8"/>
  <text x="650" y="450" fill="#4488ff" font-size="12">40ms (30%)</text>

  <!-- Out Proj bar -->
  <text x="20" y="472" fill="#ccc" font-size="12">Output proj</text>
  <rect x="300" y="460" width="340" height="16" rx="3" fill="#333300"/>
  <rect x="300" y="460" width="40" height="16" rx="3" fill="#88ff44" opacity="0.8"/>
  <text x="650" y="472" fill="#88ff44" font-size="12">10ms (7%)</text>

  <text x="20" y="496" fill="#888" font-size="11">Total: ~134ms/token → 7.5 tok/s ceiling (actual: 7.0 tok/s with sampling overhead)</text>

  <!-- Bug Fix History -->
  <text x="20" y="530" fill="#ffaa00" font-size="14" font-weight="bold">▸ BUG FIX HISTORY</text>
  <line x1="20" y1="536" x2="860" y2="536" stroke="#333" stroke-width="1"/>

  <rect x="20" y="544" width="210" height="22" rx="3" fill="#2a1a1a" stroke="#ff4444" stroke-width="1"/>
  <text x="125" y="559" fill="#ff6666" font-size="11" text-anchor="middle">Bug 7: Q6_K loop iter (P0)</text>
  <rect x="240" y="544" width="190" height="22" rx="3" fill="#1a2a1a" stroke="#44ff44" stroke-width="1"/>
  <text x="335" y="559" fill="#66ff66" font-size="11" text-anchor="middle">Bug 1: GQA Interleave</text>
  <rect x="440" y="544" width="140" height="22" rx="3" fill="#1a2a1a" stroke="#44ff44" stroke-width="1"/>
  <text x="510" y="559" fill="#66ff66" font-size="11" text-anchor="middle">Bug 2: IMRoPE</text>
  <rect x="590" y="544" width="150" height="22" rx="3" fill="#1a2a1a" stroke="#44ff44" stroke-width="1"/>
  <text x="665" y="559" fill="#66ff66" font-size="11" text-anchor="middle">Bug 3: OMP Race</text>
  <rect x="750" y="544" width="130" height="22" rx="3" fill="#1a2a1a" stroke="#44ff44" stroke-width="1"/>
  <text x="815" y="559" fill="#66ff66" font-size="11" text-anchor="middle">Bug 4-6: SSM/MTP</text>

  <!-- Cos-sim Timeline -->
  <text x="20" y="590" fill="#ffaa00" font-size="14" font-weight="bold">▸ COS-SIM TIMELINE</text>
  <line x1="20" y1="596" x2="860" y2="596" stroke="#333" stroke-width="1"/>

  <!-- Timeline bars -->
  <text x="20" y="618" fill="#aaa" font-size="11">Phase 7: GQA broken</text>
  <rect x="300" y="608" width="340" height="12" rx="3" fill="#331111"/>
  <rect x="300" y="608" width="0" height="12" rx="3" fill="#ff4444"/>
  <text x="650" y="618" fill="#ff4444" font-size="11">-0.51</text>

  <text x="20" y="638" fill="#aaa" font-size="11">Phase 8: GQA fixed (no MoE)</text>
  <rect x="300" y="628" width="340" height="12" rx="3" fill="#113311"/>
  <rect x="300" y="628" width="339" height="12" rx="3" fill="#44ff44"/>
  <text x="650" y="638" fill="#44ff44" font-size="11">0.997</text>

  <text x="20" y="658" fill="#aaa" font-size="11">Phase 8: MoE enabled (Q6_K bug)</text>
  <rect x="300" y="648" width="340" height="12" rx="3" fill="#332211"/>
  <rect x="300" y="648" width="270" height="12" rx="3" fill="#ff8800"/>
  <text x="650" y="658" fill="#ff8800" font-size="11">0.794</text>

  <text x="20" y="678" fill="#aaa" font-size="11" font-weight="bold">Phase 9.5: Q6_K fixed</text>
  <rect x="300" y="668" width="340" height="14" rx="3" fill="#003300"/>
  <rect x="300" y="668" width="339" height="14" rx="3" fill="#00ff88"/>
  <text x="650" y="678" fill="#00ff88" font-size="11" font-weight="bold">0.9967 ✓</text>

  <!-- Key Insight Box -->
  <rect x="20" y="696" width="860" height="44" rx="4" fill="#110022" stroke="#aa44ff" stroke-width="1"/>
  <text x="30" y="714" fill="#cc88ff" font-size="11" font-weight="bold">KEY INSIGHT: DA v10's analysis was WRONG</text>
  <text x="30" y="730" fill="#aa66dd" font-size="10">The claimed "softmax vs sigmoid" root cause was incorrect — both llama.cpp and bytropix use softmax. The real bug was a one-character loop bound error in Q6_K.</text>

  <!-- Per-layer cos-sim -->
  <text x="20" y="760" fill="#888" font-size="10">Per-layer cos-sim: L0=0.998 L1=0.998 L2=0.997 L3=0.997 L4=0.997 L5=0.997 ... All layers >0.997 with MoE enabled</text>
</svg>
